<svg width="22" height="22" viewBox="0 0 22 22" fill="none" xmlns="http://www.w3.org/2000/svg">
<path d="M9.29 20.961H8.39C5.142 20.961 3.517 20.961 2.508 19.936C1.499 18.911 1.5 17.261 1.5 13.961V8.961C1.5 5.661 1.5 4.011 2.51 2.987C3.517 1.96 5.142 1.96 8.39 1.96H11.343C14.592 1.96 16.49 2.016 17.499 3.04C18.509 4.066 18.499 5.66 18.499 8.96V10.147M14.945 1V3M9.945 1V3M4.945 1V3M6 14H10M6 9H14" stroke="black" stroke-width="1.5" stroke-linecap="round" stroke-linejoin="round"/>
<path opacity="0.93" d="M19.7601 13.879C18.8541 12.864 18.3111 12.925 17.7081 13.106C17.2851 13.166 15.8371 14.856 15.2331 15.396C14.2421 16.374 13.2461 17.382 13.1811 17.514C12.9931 17.819 12.8191 18.359 12.7341 18.963C12.5771 19.869 12.3511 20.888 12.6371 20.976C12.9231 21.064 13.7241 20.896 14.6291 20.763C15.2331 20.653 15.6551 20.533 15.9571 20.352C16.3801 20.098 17.1641 19.205 18.5171 17.876C19.3641 16.983 20.1821 16.366 20.4241 15.763C20.6651 14.857 20.3041 14.374 19.7601 13.879Z" stroke="black" stroke-width="1.5" stroke-linecap="round" stroke-linejoin="round"/>
</svg>
