<svg width="24" height="24" viewBox="0 0 24 24" fill="none" xmlns="http://www.w3.org/2000/svg">
<path d="M20 18C20 20.21 16.418 22 12 22C7.582 22 4 20.21 4 18V13.974C4.502 14.591 5.215 15.103 6.008 15.499C7.58 16.285 9.7 16.75 12 16.75C14.3 16.75 16.42 16.285 17.992 15.5C18.785 15.103 19.498 14.59 20 13.974V18Z" fill="#6FBAFF"/>
<path d="M12 10.75C14.3 10.75 16.42 10.285 17.992 9.5C18.785 9.103 19.498 8.59 20 7.974V12C20 12.5 18.214 13.591 17.321 14.158C15.998 14.819 14.118 15.25 12 15.25C9.882 15.25 8.002 14.82 6.679 14.158C5.5 13.568 4 12.5 4 12V7.974C4.502 8.591 5.215 9.103 6.008 9.499C7.58 10.285 9.7 10.75 12 10.75Z" fill="#2897FF"/>
<path d="M17.3212 8.158C15.9982 8.819 14.1182 9.25 12.0002 9.25C9.88218 9.25 8.00218 8.82 6.67918 8.158C6.16418 7.956 5.00618 7.315 4.20218 6.279C4.13377 6.19228 4.08406 6.09233 4.05618 5.98546C4.0283 5.87858 4.02285 5.76709 4.04018 5.658C4.06318 5.51 4.09518 5.357 4.13618 5.262C4.82818 3.406 8.08618 2 12.0002 2C15.9142 2 19.1722 3.406 19.8642 5.262C19.9052 5.357 19.9372 5.51 19.9602 5.658C19.9775 5.76709 19.9721 5.87858 19.9442 5.98546C19.9163 6.09233 19.8666 6.19228 19.7982 6.279C18.9942 7.315 17.8362 7.956 17.3212 8.158Z" fill="#006FFD"/>
<path fill-rule="evenodd" clip-rule="evenodd" d="M12.0615 14.6782C11.9336 14.6028 11.8081 14.5234 11.6853 14.44C11.5599 14.355 11.4396 14.2633 11.3243 14.165C11.2098 14.0661 11.1024 13.96 11.0023 13.8465C10.9023 13.7327 10.814 13.609 10.7398 13.477C10.6651 13.3435 10.6063 13.2017 10.5648 13.0545C10.5211 12.8984 10.4993 12.737 10.5 12.575V11.775L10.625 11.65C10.7084 11.65 10.7892 11.647 10.8675 11.641C10.9417 11.6351 11.0152 11.6245 11.088 11.609C11.159 11.5933 11.2284 11.572 11.296 11.545C11.3672 11.5155 11.4352 11.4799 11.5 11.4382C11.5918 11.3778 11.6914 11.3303 11.796 11.297C11.9583 11.2501 12.1287 11.238 12.296 11.2615C12.4036 11.2764 12.5081 11.3087 12.6053 11.3572C12.6549 11.3814 12.7033 11.4082 12.7503 11.4377C12.8154 11.4794 12.8839 11.5151 12.9555 11.5447C13.023 11.5719 13.0923 11.5932 13.1633 11.6087C13.2363 11.6244 13.3099 11.6351 13.3843 11.641C13.4621 11.6468 13.5427 11.6497 13.626 11.6497L13.751 11.7747V12.5747C13.752 12.7368 13.7305 12.8983 13.687 13.0545C13.6455 13.2017 13.5867 13.3435 13.512 13.477C13.4375 13.6089 13.3495 13.7327 13.2495 13.8465C13.1495 13.9598 13.0424 14.0656 12.928 14.164C12.8127 14.2624 12.6918 14.3542 12.566 14.439C12.4427 14.5225 12.3168 14.6022 12.1885 14.678H12.0615V14.6782ZM10.75 11.8975V12.575C10.749 12.7137 10.7675 12.8525 10.805 12.9862C10.841 13.1146 10.8922 13.2382 10.9575 13.3545C11.0235 13.4715 11.101 13.5805 11.19 13.6815C11.2825 13.786 11.3815 13.8838 11.487 13.975C11.595 14.0671 11.7077 14.153 11.825 14.2325C11.925 14.2991 12.025 14.3632 12.125 14.4247C12.225 14.3642 12.325 14.3002 12.425 14.2327C12.5427 14.1529 12.6556 14.067 12.7638 13.975C12.8691 13.8838 12.9679 13.7861 13.0603 13.682C13.1488 13.5813 13.2267 13.4717 13.2928 13.355C13.358 13.2387 13.4093 13.115 13.4453 12.9867C13.4828 12.8525 13.501 12.7142 13.5003 12.575V11.8975C13.4605 11.8975 13.422 11.8945 13.384 11.8917L13.3643 11.8902C13.2787 11.8835 13.1937 11.8712 13.1098 11.8535C12.9344 11.8152 12.7672 11.7464 12.6158 11.65C12.5769 11.6253 12.5366 11.6027 12.4953 11.5825C12.4211 11.5459 12.3415 11.5214 12.2595 11.51C12.1293 11.491 11.9965 11.5 11.87 11.5365C11.787 11.5635 11.7078 11.6015 11.635 11.6495C11.557 11.6995 11.4751 11.7422 11.3893 11.7777C11.3082 11.8101 11.2246 11.8358 11.1393 11.8545C11.0554 11.8721 10.9707 11.8843 10.885 11.891C10.8414 11.8936 10.7964 11.8958 10.75 11.8975ZM12.2663 12.9725C12.3468 12.9397 12.4135 12.88 12.4549 12.8035C12.4962 12.727 12.5097 12.6385 12.493 12.5531C12.4764 12.4678 12.4305 12.3909 12.3634 12.3356C12.2962 12.2803 12.212 12.2501 12.125 12.2501C12.038 12.2501 11.9538 12.2803 11.8866 12.3356C11.8195 12.3909 11.7737 12.4678 11.757 12.5531C11.7403 12.6385 11.7538 12.727 11.7952 12.8035C11.8365 12.88 11.9032 12.9397 11.9838 12.9725L11.875 13.625H12.375L12.2663 12.9725Z" fill="white"/>
</svg>
