<svg width="16" height="16" viewBox="0 0 16 16" fill="none" xmlns="http://www.w3.org/2000/svg">
<path d="M8 1C6.427 1 4.978 1.289 3.904 1.777C2.875 2.245 2 2.993 2 4C2 5.007 2.875 5.755 3.904 6.223C4.978 6.711 6.427 7 8 7C9.573 7 11.022 6.711 12.096 6.223C13.125 5.755 14 5.007 14 4C14 2.993 13.125 2.245 12.096 1.777C11.022 1.289 9.573 1 8 1Z" fill="#006FFD"/>
<path d="M2 7.00001V6.16101C2.457 6.59301 3.004 6.91201 3.49 7.13301C4.722 7.69301 6.318 8.00001 8 8.00001C9.682 8.00001 11.278 7.69301 12.51 7.13301C12.996 6.91301 13.543 6.59301 14 6.16101V7.00001C14 7.42401 13.845 7.80201 13.589 8.13301C12.6943 7.91133 11.7531 7.96913 10.8922 8.29865C10.0313 8.62816 9.29205 9.21356 8.774 9.97601C8.51633 9.99234 8.25819 10.0003 8 10C6.427 10 4.978 9.71101 3.904 9.22301C2.875 8.75501 2 8.00701 2 7.00001ZM8.257 10.998L8 11C6.318 11 4.722 10.693 3.49 10.133C3.004 9.91301 2.457 9.59301 2 9.16101V10C2 11.007 2.875 11.755 3.904 12.223C4.978 12.711 6.427 13 8 13H8.027C7.95307 12.3239 8.03166 11.6398 8.257 10.998ZM8.255 13.998L8 14C6.318 14 4.722 13.693 3.49 13.133C3.004 12.913 2.457 12.593 2 12.161V13C2 14.007 2.875 14.755 3.904 15.223C4.978 15.711 6.427 16 8 16C8.536 16 9.058 15.966 9.555 15.903C8.96354 15.3917 8.51549 14.7352 8.255 13.998ZM11.886 9.46001C12.066 8.84701 12.934 8.84701 13.115 9.46001L13.158 9.60801C13.1849 9.69982 13.232 9.78443 13.2958 9.85564C13.3597 9.92685 13.4387 9.98283 13.5271 10.0195C13.6154 10.0561 13.7109 10.0725 13.8064 10.0674C13.9019 10.0623 13.9951 10.0359 14.079 9.99001L14.215 9.91601C14.776 9.61001 15.39 10.224 15.085 10.785L15.01 10.921C14.9643 11.0049 14.938 11.098 14.933 11.1934C14.928 11.2888 14.9445 11.3841 14.9811 11.4723C15.0177 11.5605 15.0736 11.6395 15.1448 11.7032C15.2159 11.767 15.3003 11.8141 15.392 11.841L15.541 11.886C16.153 12.066 16.153 12.934 15.541 13.115L15.391 13.158C15.2994 13.1851 15.215 13.2324 15.144 13.2963C15.073 13.3603 15.0172 13.4393 14.9808 13.5277C14.9444 13.616 14.9282 13.7114 14.9334 13.8068C14.9386 13.9022 14.9651 13.9952 15.011 14.079L15.085 14.215C15.39 14.776 14.776 15.39 14.215 15.085L14.079 15.01C13.9951 14.9644 13.902 14.9381 13.8066 14.9331C13.7112 14.9281 13.6159 14.9445 13.5277 14.9811C13.4395 15.0177 13.3606 15.0737 13.2968 15.1448C13.233 15.2159 13.1859 15.3003 13.159 15.392L13.114 15.541C12.934 16.153 12.066 16.153 11.885 15.541L11.842 15.391C11.8149 15.2994 11.7677 15.215 11.7037 15.144C11.6397 15.073 11.5607 15.0173 11.4724 14.9808C11.384 14.9444 11.2887 14.9282 11.1933 14.9334C11.0978 14.9386 11.0048 14.9651 10.921 15.011L10.785 15.085C10.224 15.39 9.61 14.776 9.915 14.215L9.99 14.079C10.0357 13.9951 10.062 13.902 10.067 13.8066C10.072 13.7112 10.0555 13.6159 10.0189 13.5277C9.98227 13.4395 9.92635 13.3606 9.85525 13.2968C9.78415 13.233 9.69966 13.1859 9.608 13.159L9.46 13.114C8.847 12.934 8.847 12.066 9.46 11.885L9.608 11.842C9.6998 11.8152 9.78442 11.7681 9.85563 11.7042C9.92684 11.6403 9.98282 11.5613 10.0195 11.473C10.0561 11.3846 10.0725 11.2892 10.0674 11.1936C10.0623 11.0981 10.0358 11.005 9.99 10.921L9.916 10.785C9.61 10.224 10.224 9.61001 10.785 9.91501L10.921 9.99001C11.0049 10.0357 11.098 10.062 11.1934 10.067C11.2888 10.072 11.3841 10.0555 11.4723 10.0189C11.5605 9.98228 11.6394 9.92636 11.7032 9.85526C11.767 9.78416 11.8141 9.69968 11.841 9.60801L11.886 9.46001ZM14 12.5C14 12.303 13.9612 12.108 13.8858 11.926C13.8104 11.744 13.6999 11.5786 13.5607 11.4394C13.4214 11.3001 13.256 11.1896 13.074 11.1142C12.892 11.0388 12.697 11 12.5 11C12.303 11 12.108 11.0388 11.926 11.1142C11.744 11.1896 11.5786 11.3001 11.4393 11.4394C11.3001 11.5786 11.1896 11.744 11.1142 11.926C11.0388 12.108 11 12.303 11 12.5C11 12.8978 11.158 13.2794 11.4393 13.5607C11.7206 13.842 12.1022 14 12.5 14C12.8978 14 13.2794 13.842 13.5607 13.5607C13.842 13.2794 14 12.8978 14 12.5Z" fill="#2897FF"/>
</svg>
