<svg width="14" height="15" viewBox="0 0 14 15" fill="none" xmlns="http://www.w3.org/2000/svg">
<path d="M6 0C4.427 0 2.978 0.289 1.904 0.777C0.875 1.245 0 1.993 0 3C0 4.007 0.875 4.755 1.904 5.223C2.978 5.711 4.427 6 6 6C7.573 6 9.022 5.711 10.096 5.223C11.125 4.755 12 4.007 12 3C12 1.993 11.125 1.245 10.096 0.777C9.022 0.289 7.573 0 6 0Z" fill="white"/>
<path d="M0 6.00001V5.16101C0.457 5.59301 1.004 5.91201 1.49 6.13301C2.722 6.69301 4.318 7.00001 6 7.00001C7.682 7.00001 9.278 6.69301 10.51 6.13301C10.996 5.91301 11.543 5.59301 12 5.16101V6.00001C12 6.42401 11.845 6.80201 11.589 7.13301C10.6943 6.91133 9.75307 6.96913 8.89218 7.29865C8.0313 7.62816 7.29205 8.21356 6.774 8.97601C6.51633 8.99234 6.25819 9.00034 6 9.00001C4.427 9.00001 2.978 8.71101 1.904 8.22301C0.875 7.75501 0 7.00701 0 6.00001ZM6.257 9.99801L6 10C4.318 10 2.722 9.69301 1.49 9.13301C1.004 8.91301 0.457 8.59301 0 8.16101V9.00001C0 10.007 0.875 10.755 1.904 11.223C2.978 11.711 4.427 12 6 12H6.027C5.95307 11.3239 6.03166 10.6398 6.257 9.99801ZM6.255 12.998L6 13C4.318 13 2.722 12.693 1.49 12.133C1.004 11.913 0.457 11.593 0 11.161V12C0 13.007 0.875 13.755 1.904 14.223C2.978 14.711 4.427 15 6 15C6.536 15 7.058 14.966 7.555 14.903C6.96354 14.3917 6.51549 13.7352 6.255 12.998ZM9.886 8.46001C10.066 7.84701 10.934 7.84701 11.115 8.46001L11.158 8.60801C11.1849 8.69982 11.232 8.78443 11.2958 8.85564C11.3597 8.92685 11.4387 8.98283 11.5271 9.01948C11.6154 9.05612 11.7109 9.0725 11.8064 9.0674C11.9019 9.0623 11.9951 9.03586 12.079 8.99001L12.215 8.91601C12.776 8.61001 13.39 9.22401 13.085 9.78501L13.01 9.92101C12.9643 10.0049 12.938 10.098 12.933 10.1934C12.928 10.2888 12.9445 10.3841 12.9811 10.4723C13.0177 10.5605 13.0736 10.6395 13.1448 10.7032C13.2159 10.767 13.3003 10.8141 13.392 10.841L13.541 10.886C14.153 11.066 14.153 11.934 13.541 12.115L13.391 12.158C13.2994 12.1851 13.215 12.2324 13.144 12.2963C13.073 12.3603 13.0172 12.4393 12.9808 12.5277C12.9444 12.616 12.9282 12.7114 12.9334 12.8068C12.9386 12.9022 12.9651 12.9952 13.011 13.079L13.085 13.215C13.39 13.776 12.776 14.39 12.215 14.085L12.079 14.01C11.9951 13.9644 11.902 13.9381 11.8066 13.9331C11.7112 13.9281 11.6159 13.9445 11.5277 13.9811C11.4395 14.0177 11.3606 14.0737 11.2968 14.1448C11.233 14.2159 11.1859 14.3003 11.159 14.392L11.114 14.541C10.934 15.153 10.066 15.153 9.885 14.541L9.842 14.391C9.81491 14.2994 9.76765 14.215 9.70369 14.144C9.63973 14.073 9.56068 14.0173 9.47235 13.9808C9.38403 13.9444 9.28866 13.9282 9.19325 13.9334C9.09784 13.9386 9.00482 13.9651 8.921 14.011L8.785 14.085C8.224 14.39 7.61 13.776 7.915 13.215L7.99 13.079C8.03566 12.9951 8.06195 12.902 8.06695 12.8066C8.07195 12.7112 8.05554 12.6159 8.0189 12.5277C7.98227 12.4395 7.92635 12.3606 7.85525 12.2968C7.78415 12.233 7.69966 12.1859 7.608 12.159L7.46 12.114C6.847 11.934 6.847 11.066 7.46 10.885L7.608 10.842C7.6998 10.8152 7.78442 10.7681 7.85563 10.7042C7.92684 10.6403 7.98282 10.5613 8.01947 10.473C8.05611 10.3846 8.07249 10.2892 8.06739 10.1936C8.06229 10.0981 8.03585 10.005 7.99 9.92101L7.916 9.78501C7.61 9.22401 8.224 8.61001 8.785 8.91501L8.921 8.99001C9.00491 9.03567 9.09798 9.06196 9.19338 9.06696C9.28878 9.07196 9.38408 9.05555 9.47231 9.01891C9.56053 8.98228 9.63944 8.92636 9.70324 8.85526C9.76704 8.78416 9.81411 8.69968 9.841 8.60801L9.886 8.46001ZM12 11.5C12 11.303 11.9612 11.108 11.8858 10.926C11.8104 10.744 11.6999 10.5786 11.5607 10.4394C11.4214 10.3001 11.256 10.1896 11.074 10.1142C10.892 10.0388 10.697 10 10.5 10C10.303 10 10.108 10.0388 9.92597 10.1142C9.74399 10.1896 9.57863 10.3001 9.43934 10.4394C9.30005 10.5786 9.18956 10.744 9.11418 10.926C9.0388 11.108 9 11.303 9 11.5C9 11.8978 9.15804 12.2794 9.43934 12.5607C9.72064 12.842 10.1022 13 10.5 13C10.8978 13 11.2794 12.842 11.5607 12.5607C11.842 12.2794 12 11.8978 12 11.5Z" fill="white"/>
</svg>
