<svg width="18" height="18" viewBox="0 0 18 18" fill="none" xmlns="http://www.w3.org/2000/svg">
<path d="M4.154 10.539C4.36067 10.539 4.54067 10.4623 4.694 10.309C4.84667 10.1557 4.923 9.97567 4.923 9.769C4.923 9.56233 4.84633 9.38233 4.693 9.229C4.53967 9.07567 4.35967 8.99933 4.153 9C3.94633 9.00067 3.767 9.07733 3.615 9.23C3.463 9.38267 3.38633 9.56267 3.385 9.77C3.385 9.976 3.46167 10.1557 3.615 10.309C3.76833 10.4623 3.948 10.539 4.154 10.539ZM4.154 7.769C4.36067 7.769 4.54067 7.69233 4.694 7.539C4.84667 7.38567 4.923 7.206 4.923 7C4.923 6.794 4.84633 6.614 4.693 6.46C4.53967 6.306 4.35967 6.22933 4.153 6.23C3.94633 6.23067 3.767 6.30733 3.615 6.46C3.463 6.61267 3.38633 6.79267 3.385 7C3.38367 7.20733 3.46033 7.38733 3.615 7.54C3.76967 7.69267 3.94933 7.76933 4.154 7.77M4.154 5C4.36067 5 4.54067 4.92333 4.694 4.77C4.84733 4.61667 4.92367 4.43667 4.923 4.23C4.92233 4.02333 4.84567 3.84367 4.693 3.691C4.54033 3.53833 4.36033 3.46167 4.153 3.461C3.94567 3.46033 3.76633 3.537 3.615 3.691C3.46367 3.845 3.387 4.025 3.385 4.231C3.383 4.437 3.45967 4.617 3.615 4.771C3.77033 4.925 3.95 5.00133 4.154 5ZM7.231 10.27H11.5V9.27H7.23L7.231 10.27ZM7.231 7.5H14.5V6.5H7.23L7.231 7.5ZM7.231 4.73H14.5V3.73H7.23L7.231 4.73ZM0 17.078V0H18V14H3.077L0 17.078ZM2.65 13H17V1H1V14.644L2.65 13Z" fill="black"/>
</svg>
