<svg width="16" height="16" viewBox="0 0 16 16" fill="none" xmlns="http://www.w3.org/2000/svg">
<path d="M13.3 6.453L15.227 6.768C15.3033 6.78057 15.3727 6.81986 15.4227 6.87884C15.4727 6.93783 15.5001 7.01267 15.5 7.09V8.883C15.5 8.95972 15.4729 9.03398 15.4235 9.09269C15.3741 9.15141 15.3056 9.19082 15.23 9.204L13.3 9.543C13.1887 9.931 13.0357 10.3013 12.841 10.654L13.982 12.238C14.0275 12.3009 14.0491 12.3779 14.0428 12.4553C14.0366 12.5326 14.003 12.6052 13.948 12.66L12.68 13.928C12.6258 13.9824 12.5542 14.0159 12.4777 14.0227C12.4013 14.0295 12.3249 14.009 12.262 13.965L10.662 12.842C10.3077 13.0387 9.93277 13.1957 9.544 13.31L9.204 15.231C9.19058 15.3066 9.15093 15.375 9.09203 15.4242C9.03312 15.4734 8.95875 15.5002 8.882 15.5H7.09C7.01293 15.5001 6.93834 15.4728 6.87955 15.423C6.82075 15.3731 6.78157 15.304 6.769 15.228L6.45 13.317C6.05964 13.204 5.683 13.048 5.327 12.852L3.739 13.965C3.67612 14.009 3.59972 14.0295 3.52326 14.0227C3.44679 14.0159 3.37517 13.9824 3.321 13.928L2.052 12.66C1.99811 12.6051 1.96511 12.533 1.95872 12.4563C1.95233 12.3796 1.97294 12.3031 2.017 12.24L3.14 10.67C2.94185 10.3123 2.78421 9.93364 2.67 9.541L0.769 9.204C0.693601 9.19061 0.625322 9.1511 0.576135 9.09241C0.526949 9.03372 0.499995 8.95958 0.5 8.883V7.09C0.5 6.93 0.615 6.794 0.773 6.768L2.674 6.451C2.78933 6.05767 2.946 5.68167 3.144 5.323L2.034 3.737C1.99023 3.67421 1.96996 3.59802 1.97672 3.52178C1.98349 3.44554 2.01686 3.37411 2.071 3.32L3.34 2.053C3.39454 1.9984 3.46668 1.96491 3.54358 1.9585C3.62049 1.95209 3.69718 1.97318 3.76 2.018L5.335 3.143C5.69033 2.94833 6.064 2.795 6.456 2.683L6.768 0.773C6.78057 0.696698 6.81986 0.62735 6.87884 0.577341C6.93783 0.527333 7.01267 0.49992 7.09 0.5H8.883C9.042 0.5 9.177 0.614 9.205 0.77L9.541 2.69C9.931 2.80267 10.3043 2.95767 10.661 3.155L12.239 2.02C12.3018 1.97438 12.3787 1.95265 12.4561 1.95869C12.5334 1.96474 12.6061 1.99818 12.661 2.053L13.929 3.321C13.9832 3.37529 14.0166 3.44698 14.0232 3.52344C14.0298 3.5999 14.0092 3.67623 13.965 3.739L12.84 5.342C13.0333 5.69533 13.1867 6.06533 13.3 6.452V6.453ZM5.716 8C5.716 8.60549 5.95653 9.18618 6.38468 9.61432C6.81282 10.0425 7.39351 10.283 7.999 10.283C8.60449 10.283 9.18518 10.0425 9.61333 9.61432C10.0415 9.18618 10.282 8.60549 10.282 8C10.282 7.39451 10.0415 6.81382 9.61333 6.38568C9.18518 5.95753 8.60449 5.717 7.999 5.717C7.39351 5.717 6.81282 5.95753 6.38468 6.38568C5.95653 6.81382 5.716 7.39451 5.716 8Z" stroke="black"/>
</svg>
