<svg width="24" height="24" viewBox="0 0 24 24" fill="none" xmlns="http://www.w3.org/2000/svg">
<path d="M17.3 10.453L19.227 10.768C19.3033 10.7806 19.3727 10.8199 19.4227 10.8788C19.4727 10.9378 19.5001 11.0127 19.5 11.09V12.883C19.5 12.9597 19.4729 13.034 19.4235 13.0927C19.3741 13.1514 19.3056 13.1908 19.23 13.204L17.3 13.543C17.1887 13.931 17.0357 14.3013 16.841 14.654L17.982 16.238C18.0275 16.3009 18.0491 16.3779 18.0428 16.4553C18.0366 16.5326 18.003 16.6052 17.948 16.66L16.68 17.928C16.6258 17.9824 16.5542 18.0159 16.4777 18.0227C16.4013 18.0295 16.3249 18.009 16.262 17.965L14.662 16.842C14.3077 17.0387 13.9328 17.1957 13.544 17.31L13.204 19.231C13.1906 19.3066 13.1509 19.375 13.092 19.4242C13.0331 19.4734 12.9588 19.5002 12.882 19.5H11.09C11.0129 19.5001 10.9383 19.4728 10.8795 19.423C10.8207 19.3731 10.7816 19.304 10.769 19.228L10.45 17.317C10.0596 17.204 9.683 17.048 9.327 16.852L7.739 17.965C7.67612 18.009 7.59972 18.0295 7.52326 18.0227C7.44679 18.0159 7.37517 17.9824 7.321 17.928L6.052 16.66C5.99811 16.6051 5.96511 16.533 5.95872 16.4563C5.95233 16.3796 5.97294 16.3031 6.017 16.24L7.14 14.67C6.94185 14.3123 6.78421 13.9336 6.67 13.541L4.769 13.204C4.6936 13.1906 4.62532 13.1511 4.57614 13.0924C4.52695 13.0337 4.49999 12.9596 4.5 12.883V11.09C4.5 10.93 4.615 10.794 4.773 10.768L6.674 10.451C6.78933 10.0577 6.946 9.68167 7.144 9.323L6.034 7.737C5.99023 7.67421 5.96996 7.59802 5.97672 7.52178C5.98349 7.44554 6.01686 7.37411 6.071 7.32L7.34 6.053C7.39454 5.9984 7.46668 5.96491 7.54358 5.9585C7.62049 5.95209 7.69718 5.97318 7.76 6.018L9.335 7.143C9.69033 6.94833 10.064 6.795 10.456 6.683L10.768 4.773C10.7806 4.6967 10.8199 4.62735 10.8788 4.57734C10.9378 4.52733 11.0127 4.49992 11.09 4.5H12.883C13.042 4.5 13.177 4.614 13.205 4.77L13.541 6.69C13.931 6.80267 14.3043 6.95767 14.661 7.155L16.239 6.02C16.3018 5.97438 16.3787 5.95265 16.4561 5.95869C16.5334 5.96474 16.6061 5.99818 16.661 6.053L17.929 7.321C17.9832 7.37529 18.0166 7.44698 18.0232 7.52344C18.0298 7.5999 18.0092 7.67623 17.965 7.739L16.84 9.342C17.0333 9.69533 17.1867 10.0653 17.3 10.452V10.453ZM9.716 12C9.716 12.6055 9.95653 13.1862 10.3847 13.6143C10.8128 14.0425 11.3935 14.283 11.999 14.283C12.6045 14.283 13.1852 14.0425 13.6133 13.6143C14.0415 13.1862 14.282 12.6055 14.282 12C14.282 11.3945 14.0415 10.8138 13.6133 10.3857C13.1852 9.95753 12.6045 9.717 11.999 9.717C11.3935 9.717 10.8128 9.95753 10.3847 10.3857C9.95653 10.8138 9.716 11.3945 9.716 12Z" stroke="black"/>
</svg>
