<svg width="25" height="23" viewBox="0 0 25 23" fill="none" xmlns="http://www.w3.org/2000/svg">
<rect width="25" height="23" fill="#EEEFF2"/>
<g clip-path="url(#clip0_6_757)">
<rect width="660" height="639" transform="translate(-206.158 -346)" fill="white"/>
<mask id="mask0_6_757" style="mask-type:alpha" maskUnits="userSpaceOnUse" x="0" y="-1" width="25" height="24">
<path fill-rule="evenodd" clip-rule="evenodd" d="M16.3057 9.49815C15.4912 9.37978 14.7872 8.86816 14.4231 8.13007L12.6357 4.50644L10.8483 8.13007C10.4843 8.86816 9.78024 9.37978 8.96581 9.49815L4.96565 10.0795L7.86067 12.902C8.44982 13.4764 8.7186 14.3039 8.57944 15.1149L7.89599 19.0974L11.4723 17.2172C12.2007 16.8342 13.0708 16.8342 13.7991 17.2172L17.3755 19.0974L16.692 15.1149C16.5529 14.3039 16.8217 13.4764 17.4108 12.902L20.3058 10.0795L16.3057 9.49815ZM23.8599 8.06976C24.3558 8.14344 24.7015 8.60249 24.625 9.09838C24.5967 9.29674 24.5032 9.4781 24.3615 9.61695L19.156 14.6921L20.3858 21.8584C20.4708 22.3515 20.1393 22.819 19.6462 22.904C19.4507 22.938 19.2467 22.9069 19.071 22.8134L12.6357 19.43L6.20046 22.8134C6.05086 22.8924 5.88211 22.9278 5.71335 22.9158C5.5446 22.9038 5.3826 22.8447 5.24571 22.7453C5.10882 22.6459 5.00253 22.5101 4.93889 22.3533C4.87525 22.1966 4.8568 22.0251 4.88564 21.8584L6.11545 14.6921L0.909997 9.61695C0.737625 9.44892 0.63901 9.21934 0.635822 8.97864C0.632634 8.73794 0.725133 8.50583 0.892995 8.33329C1.03185 8.19161 1.2132 8.0981 1.41156 8.06976L8.60625 7.02414L11.8225 0.503855C12.0463 0.0561346 12.5904 -0.128054 13.0381 0.0929724C13.2166 0.180816 13.3612 0.325334 13.449 0.503855L16.6652 7.02414L23.8599 8.06976Z" fill="#006FFD"/>
</mask>
<g mask="url(#mask0_6_757)">
<rect x="0.635742" y="-0.000549316" width="24" height="24" fill="#006FFD"/>
</g>
</g>
<defs>
<clipPath id="clip0_6_757">
<rect width="660" height="639" fill="white" transform="translate(-206.158 -346)"/>
</clipPath>
</defs>
</svg>
